<svg width="112" height="48" viewBox="0 0 112 48" fill="none" xmlns="http://www.w3.org/2000/svg">
<path d="M22.68 22.696V37H15.864V22.072C15.864 20.568 15.544 19.368 14.904 18.472C14.264 17.576 13.24 17.128 11.832 17.128C10.296 17.128 9.096 17.624 8.232 18.616C7.368 19.576 6.936 20.888 6.936 22.552V37H0.12V11.848H6.408V14.92C6.984 13.832 7.896 12.952 9.144 12.28C10.424 11.608 11.928 11.272 13.656 11.272C15.288 11.272 16.728 11.592 17.976 12.232C19.224 12.84 20.216 13.704 20.952 14.824C22.04 13.608 23.256 12.712 24.6 12.136C25.976 11.56 27.544 11.272 29.304 11.272C32.216 11.272 34.456 12.2 36.024 14.056C37.624 15.88 38.424 18.296 38.424 21.304V37H31.608V22.072C31.608 20.568 31.288 19.368 30.648 18.472C30.008 17.576 28.984 17.128 27.576 17.128C26.008 17.128 24.792 17.624 23.928 18.616C23.096 19.608 22.68 20.968 22.68 22.696ZM56.0329 37.576C54.0809 37.576 52.2889 37.24 50.6569 36.568C49.0249 35.864 47.6169 34.904 46.4329 33.688C45.2809 32.472 44.3849 31.064 43.7449 29.464C43.1369 27.864 42.8329 26.184 42.8329 24.424C42.8329 22.664 43.1369 20.984 43.7449 19.384C44.3849 17.784 45.2809 16.376 46.4329 15.16C47.6169 13.944 49.0249 13 50.6569 12.328C52.2889 11.624 54.0809 11.272 56.0329 11.272C57.9849 11.272 59.7769 11.624 61.4089 12.328C63.0409 13 64.4329 13.944 65.5849 15.16C66.7689 16.376 67.6649 17.784 68.2729 19.384C68.9129 20.984 69.2329 22.664 69.2329 24.424C69.2329 26.184 68.9129 27.864 68.2729 29.464C67.6649 31.064 66.7689 32.472 65.5849 33.688C64.4329 34.904 63.0409 35.864 61.4089 36.568C59.7769 37.24 57.9849 37.576 56.0329 37.576ZM49.6489 24.424C49.6489 25.8 49.8889 27.016 50.3689 28.072C50.8809 29.096 51.6169 29.944 52.5769 30.616C53.5369 31.256 54.6889 31.576 56.0329 31.576C57.1529 31.576 58.2249 31.304 59.2489 30.76C60.2729 30.184 61.0569 29.336 61.6009 28.216C62.1449 27.064 62.4169 25.8 62.4169 24.424C62.4169 23.048 62.1609 21.848 61.6489 20.824C61.1689 19.768 60.4489 18.92 59.4889 18.28C58.5289 17.608 57.3769 17.272 56.0329 17.272C54.9129 17.272 53.8409 17.56 52.8169 18.136C51.7929 18.68 51.0089 19.528 50.4649 20.68C49.9209 21.8 49.6489 23.048 49.6489 24.424ZM77.3093 8.584C76.1253 8.584 75.1333 8.2 74.3333 7.432C73.5653 6.664 73.1813 5.688 73.1813 4.504C73.1813 3.32 73.5653 2.344 74.3333 1.576C75.1333 0.775999 76.1253 0.375999 77.3093 0.375999C78.4933 0.375999 79.4693 0.775999 80.2373 1.576C81.0373 2.344 81.4373 3.32 81.4373 4.504C81.4373 5.688 81.0373 6.664 80.2373 7.432C79.4693 8.2 78.4933 8.584 77.3093 8.584ZM70.4452 47.416V41.56L71.2133 41.608C72.0773 41.608 72.7333 41.416 73.1813 41.032C73.6613 40.68 73.9013 40.008 73.9013 39.016V11.848H80.7173V38.872C80.7173 39.96 80.5733 41.032 80.2853 42.088C80.0293 43.144 79.5653 44.072 78.8933 44.872C78.2213 45.672 77.3253 46.312 76.2053 46.792C75.1173 47.272 73.7733 47.512 72.1733 47.512C71.4053 47.512 70.8293 47.48 70.4452 47.416ZM98.5954 37.576C96.6434 37.576 94.8514 37.24 93.2194 36.568C91.5874 35.864 90.1794 34.904 88.9954 33.688C87.8434 32.472 86.9474 31.064 86.3074 29.464C85.6994 27.864 85.3954 26.184 85.3954 24.424C85.3954 22.664 85.6994 20.984 86.3074 19.384C86.9474 17.784 87.8434 16.376 88.9954 15.16C90.1794 13.944 91.5874 13 93.2194 12.328C94.8514 11.624 96.6434 11.272 98.5954 11.272C100.547 11.272 102.339 11.624 103.971 12.328C105.603 13 106.995 13.944 108.147 15.16C109.331 16.376 110.227 17.784 110.835 19.384C111.475 20.984 111.795 22.664 111.795 24.424C111.795 26.184 111.475 27.864 110.835 29.464C110.227 31.064 109.331 32.472 108.147 33.688C106.995 34.904 105.603 35.864 103.971 36.568C102.339 37.24 100.547 37.576 98.5954 37.576ZM92.2114 24.424C92.2114 25.8 92.4514 27.016 92.9314 28.072C93.4434 29.096 94.1794 29.944 95.1394 30.616C96.0994 31.256 97.2514 31.576 98.5954 31.576C99.7154 31.576 100.787 31.304 101.811 30.76C102.835 30.184 103.619 29.336 104.163 28.216C104.707 27.064 104.979 25.8 104.979 24.424C104.979 23.048 104.723 21.848 104.211 20.824C103.731 19.768 103.011 18.92 102.051 18.28C101.091 17.608 99.9394 17.272 98.5954 17.272C97.4754 17.272 96.4034 17.56 95.3794 18.136C94.3554 18.68 93.5714 19.528 93.0274 20.68C92.4834 21.8 92.2114 23.048 92.2114 24.424Z" fill="white"/>
</svg>
